<?xml version="1.0" encoding="UTF-8"?>
<svg version="1.1" xmlns="http://www.w3.org/2000/svg" width="658" height="236">
<path d="M0 0 C1.08925781 -0.02384766 2.17851563 -0.04769531 3.30078125 -0.07226562 C10.72349253 -0.05880242 16.13442484 1.19692484 21.5 6.5625 C22.180625 5.758125 22.86125 4.95375 23.5625 4.125 C28.77385464 -0.42107533 35.79994239 0.38060131 42.4375 0.375 C43.19740234 0.36275391 43.95730469 0.35050781 44.74023438 0.33789062 C51.08311454 0.32164072 56.94051327 0.89326952 62.375 4.4375 C65.70084732 7.76334732 66.44458597 9.62272575 66.72705078 14.41308594 C66.72673566 15.95771849 66.71552744 17.5023747 66.6953125 19.046875 C66.6924826 19.86246887 66.68965271 20.67806274 66.68673706 21.51837158 C66.67556558 24.11656528 66.65046675 26.71441095 66.625 29.3125 C66.61496627 31.07681793 66.60584111 32.84114128 66.59765625 34.60546875 C66.57563619 38.92461273 66.54112733 43.24349741 66.5 47.5625 C61.88 47.5625 57.26 47.5625 52.5 47.5625 C52.17 37.0025 51.84 26.4425 51.5 15.5625 C47.06809489 13.78973796 45.05315398 13.28926962 40.5 13.3125 C39.489375 13.30734375 38.47875 13.3021875 37.4375 13.296875 C34.3953078 13.57196685 32.21779117 14.18419162 29.5 15.5625 C28.05037817 18.46174366 28.27873519 21.08550355 28.18359375 24.3203125 C28.16281265 24.98336395 28.14203156 25.64641541 28.12062073 26.32955933 C28.05520769 28.44876694 27.99627895 30.568099 27.9375 32.6875 C27.89430691 34.12371081 27.85069236 35.55990902 27.80664062 36.99609375 C27.69874091 40.51810344 27.59960757 44.04020688 27.5 47.5625 C23.21 47.5625 18.92 47.5625 14.5 47.5625 C14.5 36.6725 14.5 25.7825 14.5 14.5625 C9.83635196 13.89626457 5.87139067 13.42565028 1.25 13.4375 C0.23421875 13.43492188 -0.7815625 13.43234375 -1.828125 13.4296875 C-4.60341423 13.44767186 -4.60341423 13.44767186 -7.5 14.5625 C-8.9764236 17.5153472 -8.72272939 20.24698983 -8.81640625 23.5390625 C-8.83718735 24.22431 -8.85796844 24.9095575 -8.87937927 25.61557007 C-8.94480185 27.80611069 -9.00372554 29.99677189 -9.0625 32.1875 C-9.10569218 33.6718875 -9.1493067 35.15626278 -9.19335938 36.640625 C-9.30127138 40.28112818 -9.40039781 43.92172195 -9.5 47.5625 C-14.45 47.5625 -19.4 47.5625 -24.5 47.5625 C-24.43093068 42.40252549 -24.34287138 37.24334648 -24.23754883 32.08398438 C-24.2043878 30.33049373 -24.17632858 28.57689862 -24.15356445 26.82324219 C-24.1198553 24.29577302 -24.06753308 21.76925362 -24.01171875 19.2421875 C-24.00532883 18.46382538 -23.9989389 17.68546326 -23.99235535 16.8835144 C-23.86411142 12.08710683 -23.17165394 8.70094434 -20.5 4.5625 C-14.86510926 -0.50186663 -7.12067886 -0.07162813 0 0 Z " fill="#FBFEFE" transform="translate(77.5,89.4375)"/>
<path d="M0 0 C2.35694954 0.09031574 4.71153582 0.24688128 7.0625 0.4375 C8.35285156 0.53933594 9.64320313 0.64117187 10.97265625 0.74609375 C12.47119141 0.87177734 12.47119141 0.87177734 14 1 C14.05080722 7.58362525 14.08577864 14.16719971 14.10986328 20.75097656 C14.11990632 22.98960255 14.13354331 25.22821548 14.15087891 27.46679688 C14.17520157 30.68883495 14.18650026 33.91069921 14.1953125 37.1328125 C14.20563507 38.12991241 14.21595764 39.12701233 14.22659302 40.15432739 C14.22761565 46.52129625 13.96429764 51.51574122 9.875 56.6875 C3.99277569 61.41885434 -2.06605953 62.46335012 -9.375 62.43359375 C-10.52814697 62.44145653 -10.52814697 62.44145653 -11.70458984 62.44947815 C-13.31802165 62.45585612 -14.93150023 62.45461663 -16.54492188 62.44604492 C-18.9943409 62.4375197 -21.44143457 62.46637631 -23.890625 62.49804688 C-25.46874931 62.49965905 -27.04687769 62.49908105 -28.625 62.49609375 C-29.34606934 62.50732773 -30.06713867 62.51856171 -30.81005859 62.53013611 C-37.32187943 62.44215512 -42.18070984 60.07737169 -47.375 56.25 C-52.85989221 48.65553386 -51.86661538 37.05772729 -50.60546875 28.2421875 C-49.24952164 23.08084042 -46.72533278 20.28506287 -42.5234375 17.09375 C-34.35586261 13.55362466 -24.18927884 14.88269151 -15.4375 14.9375 C-14.03320473 14.94252634 -12.6289077 14.94708724 -11.22460938 14.95117188 C-7.81636097 14.96288407 -4.4082036 14.97928628 -1 15 C-1.01160156 14.00097656 -1.02320313 13.00195312 -1.03515625 11.97265625 C-1.04417969 10.68230469 -1.05320312 9.39195313 -1.0625 8.0625 C-1.07410156 6.77472656 -1.08570313 5.48695312 -1.09765625 4.16015625 C-1 1 -1 1 0 0 Z M-35 29 C-36.50143464 32.00286929 -36.2250678 35.0839496 -36.25 38.375 C-36.270625 39.04789063 -36.29125 39.72078125 -36.3125 40.4140625 C-36.33541963 43.32485577 -36.21335691 45.57871845 -34.88769531 48.19628906 C-32.15333724 50.80899437 -30.2009155 50.48692609 -26.46875 50.4609375 C-25.18355469 50.45707031 -23.89835937 50.45320313 -22.57421875 50.44921875 C-21.90567871 50.43681152 -21.23713867 50.4244043 -20.54833984 50.41162109 C-18.50697874 50.37512477 -16.46743446 50.37060167 -14.42578125 50.37109375 C-7.31958428 50.61573323 -7.31958428 50.61573323 -1 48 C-0.49223956 45.78067723 -0.49223956 45.78067723 -0.48828125 43.2109375 C-0.45283203 42.26992187 -0.41738281 41.32890625 -0.38085938 40.359375 C-0.35830078 39.37453125 -0.33574219 38.3896875 -0.3125 37.375 C-0.27833984 36.38242188 -0.24417969 35.38984375 -0.20898438 34.3671875 C-0.12634343 31.91157094 -0.05724873 29.45631859 0 27 C-4.02014331 26.95029307 -8.04016578 26.91413613 -12.06054688 26.89013672 C-13.4261385 26.8801241 -14.79170894 26.86650995 -16.15722656 26.84912109 C-18.12815912 26.82466427 -20.09925284 26.8145428 -22.0703125 26.8046875 C-23.25383301 26.79421387 -24.43735352 26.78374023 -25.65673828 26.77294922 C-29.11927377 27.00810023 -31.80895231 27.64950832 -35 29 Z " fill="#FAFEFE" transform="translate(272,75)"/>
<path d="M0 0 C2.14838363 0.00316189 4.29538913 -0.02036385 6.44360352 -0.0456543 C15.22617587 -0.08648543 22.99184477 0.07785729 30.15649414 5.56567383 C34.29931411 11.08943379 34.54030756 17.17164041 34.46899414 23.81567383 C34.4805957 24.89655273 34.4805957 24.89655273 34.49243164 25.99926758 C34.47102527 31.91812835 34.02789702 38.20695439 29.65649414 42.62817383 C22.33993322 48.96524496 11.28718453 47.61901612 2.21899414 47.56567383 C0.90415039 47.5734082 -0.41069336 47.58114258 -1.76538086 47.58911133 C-20.545279 47.55140069 -20.545279 47.55140069 -26.78100586 41.31567383 C-30.38677114 35.90702591 -29.96362892 30.24168197 -29.96850586 23.94067383 C-29.98075195 23.11567383 -29.99299805 22.29067383 -30.00561523 21.44067383 C-30.0211499 14.91611444 -29.79433836 9.47281579 -25.15600586 4.50317383 C-17.85939221 -0.80011851 -8.60602409 -0.02648007 0 0 Z M-14.78100586 15.31567383 C-14.96162863 17.93618457 -15.05908467 20.50527909 -15.09350586 23.12817383 C-15.12250977 23.85327148 -15.15151367 24.57836914 -15.18139648 25.32543945 C-15.22123208 28.67469334 -15.16524296 30.80275328 -13.12548828 33.52563477 C-10.16664536 35.78474508 -8.53810068 35.81833245 -4.84350586 35.81176758 C-3.70139648 35.81241211 -2.55928711 35.81305664 -1.38256836 35.8137207 C-0.19405273 35.79374023 0.99446289 35.77375977 2.21899414 35.75317383 C4.00176758 35.76380859 4.00176758 35.76380859 5.82055664 35.7746582 C11.91794432 35.9296367 11.91794432 35.9296367 17.56567383 34.03930664 C19.35202149 32.4677486 19.35202149 32.4677486 19.6730957 30.41455078 C19.65214844 29.7180542 19.63120117 29.02155762 19.60961914 28.30395508 C19.59672852 27.54663086 19.58383789 26.78930664 19.57055664 26.0090332 C19.53704102 25.22334961 19.50352539 24.43766602 19.46899414 23.62817383 C19.45094727 22.83088867 19.43290039 22.03360352 19.41430664 21.2121582 C19.36721661 19.24614934 19.29547313 17.28075889 19.21899414 15.31567383 C13.42166842 12.20996362 8.30043024 12.13309489 1.84399414 12.12817383 C1.00610352 12.11592773 0.16821289 12.10368164 -0.69506836 12.09106445 C-8.29484665 11.92042871 -8.29484665 11.92042871 -14.78100586 15.31567383 Z " fill="#FBFEFE" transform="translate(180.781005859375,89.684326171875)"/>
<path d="M0 0 C25.75539348 -0.53781564 25.75539348 -0.53781564 33 6 C36.20787756 11.85686475 36.45900433 16.90099297 36.375 23.5 C36.38660156 24.41136719 36.39820313 25.32273437 36.41015625 26.26171875 C36.38092043 33.01519262 35.64200389 38.28460711 30.75 43.3125 C24.68525533 47.03404786 18.73846081 47.29995082 11.8125 47.265625 C10.95116455 47.26753845 10.0898291 47.2694519 9.20239258 47.27142334 C7.39045925 47.27277773 5.57851597 47.26913367 3.76660156 47.26074219 C1.0082398 47.25003199 -1.74947077 47.26066285 -4.5078125 47.2734375 C-6.27604309 47.27211577 -8.04427328 47.26955311 -9.8125 47.265625 C-10.62936279 47.26967346 -11.44622559 47.27372192 -12.2878418 47.27789307 C-18.49436485 47.2275812 -23.81739396 46.62534492 -28.9375 42.8125 C-32.23490916 38.43415207 -31.56119897 32.67862864 -31.56640625 27.4609375 C-30.90820036 23.43907256 -30.23644816 22.38816375 -27 20 C-22.47859435 17.35151536 -19.24163186 16.63111303 -14.01953125 16.671875 C-13.0392823 16.67468475 -13.0392823 16.67468475 -12.03923035 16.67755127 C-10.66176215 16.68423945 -9.2843119 16.69808925 -7.90698242 16.71875 C-5.83558756 16.74965553 -3.76496127 16.75970825 -1.69335938 16.765625 C5.9141417 16.81077134 13.43864093 17.14200174 21 18 C20.3045656 14.99615946 20.3045656 14.99615946 19 12 C15.0971385 10.57147792 10.866371 10.65931858 6.75 10.4375 C6.00492187 10.39431641 5.25984375 10.35113281 4.4921875 10.30664062 C2.661651 10.20103275 0.83084824 10.10005799 -1 10 C-0.67 6.7 -0.34 3.4 0 0 Z M-17 28 C-17.020625 29.299375 -17.04125 30.59875 -17.0625 31.9375 C-17.07410156 32.66839844 -17.08570313 33.39929688 -17.09765625 34.15234375 C-17.20561184 36.01732141 -17.20561184 36.01732141 -16 37 C-13.51415964 37.12568214 -11.05758328 37.18862757 -8.5703125 37.203125 C-7.45110916 37.21167511 -7.45110916 37.21167511 -6.30929565 37.22039795 C-4.72720768 37.22986151 -3.14509988 37.2363873 -1.56298828 37.24023438 C0.85809782 37.2499323 3.2783324 37.28093823 5.69921875 37.3125 C7.23436994 37.3190306 8.76952723 37.32428085 10.3046875 37.328125 C11.02977509 37.3404718 11.75486267 37.3528186 12.50192261 37.36553955 C15.26874689 37.35327894 17.49621314 37.25953033 19.98095703 35.97949219 C21.65862706 32.72061614 21.17822516 29.62391167 21 26 C16.23113513 25.95049885 11.46242041 25.91423262 6.69335938 25.89013672 C5.07158808 25.88008977 3.44983484 25.86644985 1.828125 25.84912109 C-0.50525374 25.82481507 -2.8383926 25.81350387 -5.171875 25.8046875 C-5.89493835 25.79436493 -6.61800171 25.78404236 -7.36297607 25.77340698 C-11.07798039 25.77258218 -13.84581045 25.93764529 -17 28 Z " fill="#FAFEFE" transform="translate(416,90)"/>
<path d="M0 0 C0.97646484 0.00322266 1.95292969 0.00644531 2.95898438 0.00976562 C3.96638672 0.01814453 4.97378906 0.02652344 6.01171875 0.03515625 C7.03845703 0.03966797 8.06519531 0.04417969 9.12304688 0.04882812 C11.64849757 0.06057441 14.1738278 0.0770006 16.69921875 0.09765625 C18.19219087 3.08360049 17.81677103 5.80619249 17.69921875 9.09765625 C17.36921875 9.75765625 17.03921875 10.41765625 16.69921875 11.09765625 C10.75921875 11.42765625 4.81921875 11.75765625 -1.30078125 12.09765625 C-1.30078125 13.74765625 -1.30078125 15.39765625 -1.30078125 17.09765625 C-0.24165527 17.11223877 0.8174707 17.12682129 1.90869141 17.1418457 C5.85629217 17.20002952 9.80333446 17.27726032 13.75048828 17.36010742 C15.45547387 17.39326261 17.16056673 17.42132362 18.86572266 17.4440918 C21.32370509 17.47781193 23.78071281 17.53013419 26.23828125 17.5859375 C26.99476959 17.59232742 27.75125793 17.59871735 28.53067017 17.6053009 C33.27828586 17.73576857 36.56132925 18.53565263 40.69921875 21.09765625 C44.01143534 25.79517098 44.15261046 31.56627738 43.69921875 37.09765625 C42.57609838 41.59013774 40.52207385 43.54908618 36.69921875 46.09765625 C33.67379389 47.080185 30.91633988 47.21934986 27.74707031 47.21118164 C26.76635559 47.21110611 25.78564087 47.21103058 24.77520752 47.21095276 C23.72403748 47.20579147 22.67286743 47.20063019 21.58984375 47.1953125 C20.50789734 47.19389755 19.42595093 47.1924826 18.31121826 47.19102478 C14.85719025 47.18542943 11.40322716 47.17287775 7.94921875 47.16015625 C5.60677177 47.15514065 3.26432377 47.15057785 0.921875 47.14648438 C-4.81903542 47.13546152 -10.55989733 47.11820004 -16.30078125 47.09765625 C-16.30078125 43.46765625 -16.30078125 39.83765625 -16.30078125 36.09765625 C-1.78078125 36.09765625 12.73921875 36.09765625 27.69921875 36.09765625 C27.69921875 33.45765625 27.69921875 30.81765625 27.69921875 28.09765625 C26.14811401 28.1133667 26.14811401 28.1133667 24.56567383 28.12939453 C20.7172392 28.16568369 16.86881961 28.1885891 13.02026367 28.20751953 C11.35682631 28.21755682 9.6934065 28.23118956 8.0300293 28.24853516 C5.6345587 28.27288374 3.23932207 28.28416213 0.84375 28.29296875 C0.10397415 28.30329132 -0.6358017 28.31361389 -1.397995 28.32424927 C-6.34687274 28.32531672 -10.16615733 27.85109732 -14.05078125 24.66015625 C-16.60493677 21.46746184 -16.49209653 18.14475139 -16.55078125 14.22265625 C-16.58945312 12.67964844 -16.58945312 12.67964844 -16.62890625 11.10546875 C-16.25285983 7.65837655 -15.36179639 5.86172796 -13.30078125 3.09765625 C-8.95076435 0.19764498 -5.14105485 -0.03006465 0 0 Z " fill="#FAFEFE" transform="translate(533.30078125,89.90234375)"/>
<path d="M0 0 C4.95 0 9.9 0 15 0 C15.03738281 2.28679687 15.07476562 4.57359375 15.11328125 6.9296875 C15.159472 9.14056046 15.21071425 11.35126243 15.26245117 13.56201172 C15.2957373 15.10031779 15.32375778 16.63874707 15.34643555 18.17724609 C15.37991558 20.38692818 15.4322231 22.59547735 15.48828125 24.8046875 C15.49467117 25.49432587 15.5010611 26.18396423 15.50764465 26.89450073 C15.54025714 29.04685389 15.54025714 29.04685389 16 32 C20.87126317 35.24750878 26.27590027 34.32785434 32 34.3125 C33.20140625 34.32861328 34.4028125 34.34472656 35.640625 34.36132812 C37.36539063 34.36229492 37.36539063 34.36229492 39.125 34.36328125 C40.17945313 34.36626221 41.23390625 34.36924316 42.3203125 34.37231445 C44.96301749 34.17993316 44.96301749 34.17993316 46.83520508 32.91943359 C48.62553728 29.96919428 48.44183082 27.35028959 48.51171875 23.92578125 C48.52966995 23.2419487 48.54762115 22.55811615 48.56611633 21.8535614 C48.62022075 19.67327 48.6541134 17.49319744 48.6875 15.3125 C48.7206732 13.83265183 48.75516287 12.35283255 48.79101562 10.87304688 C48.87594524 7.24890831 48.94275635 3.62469348 49 0 C51.31243792 -0.02685412 53.6249627 -0.04632841 55.9375 -0.0625 C57.22527344 -0.07410156 58.51304687 -0.08570312 59.83984375 -0.09765625 C63 0 63 0 64 1 C64.25731307 5.47292286 64.1852479 9.95807547 64.1875 14.4375 C64.19974609 15.68466797 64.21199219 16.93183594 64.22460938 18.21679688 C64.25246461 35.88629893 64.25246461 35.88629893 59.875 41.9375 C53.99278523 46.15734973 48.08881534 47.46400166 40.87890625 47.43359375 C39.76261086 47.44145653 39.76261086 47.44145653 38.62376404 47.44947815 C37.06160724 47.4558548 35.49940215 47.45461837 33.93725586 47.44604492 C31.57121802 47.43753137 29.20759741 47.46635876 26.84179688 47.49804688 C11.29443026 47.57128784 11.29443026 47.57128784 5 43 C0.52556118 37.51881245 -0.14626456 33.12785581 -0.09765625 26.26953125 C-0.0962413 25.51911057 -0.09482635 24.76868988 -0.09336853 23.99552917 C-0.0877756 21.6011454 -0.07522444 19.20685547 -0.0625 16.8125 C-0.05748408 15.18815239 -0.05292134 13.56380332 -0.04882812 11.93945312 C-0.0386598 7.95957025 -0.01908312 3.97989007 0 0 Z " fill="#FBFEFE" transform="translate(293,90)"/>
<path d="M0 0 C1.16402344 -0.02513672 1.16402344 -0.02513672 2.3515625 -0.05078125 C3.35316406 0.12904297 3.35316406 0.12904297 4.375 0.3125 C6.67290514 3.7593577 6.61934461 5.01368952 6.60205078 9.0690918 C6.60182419 10.84058846 6.60182419 10.84058846 6.60159302 12.64787292 C6.59127045 13.92294205 6.58094788 15.19801117 6.5703125 16.51171875 C6.5674826 17.81704056 6.56465271 19.12236237 6.56173706 20.46723938 C6.55410747 23.93445515 6.53446493 27.40150288 6.5123291 30.86865234 C6.49185605 34.40785448 6.48273223 37.94708382 6.47265625 41.48632812 C6.45121828 48.42846133 6.41604169 55.37045529 6.375 62.3125 C1.425 62.3125 -3.525 62.3125 -8.625 62.3125 C-8.625 46.8025 -8.625 31.2925 -8.625 15.3125 C-4.335 15.3125 -0.045 15.3125 4.375 15.3125 C3.34964257 14.05436795 3.34964257 14.05436795 1.16015625 14.28515625 C-0.65243441 14.34496914 -2.46493867 14.40746182 -4.27734375 14.47265625 C-6.625 14.3125 -6.625 14.3125 -8.625 12.3125 C-8.8203125 9.9296875 -8.8203125 9.9296875 -8.75 7.1875 C-8.73195313 6.27742188 -8.71390625 5.36734375 -8.6953125 4.4296875 C-8.67210937 3.73101562 -8.64890625 3.03234375 -8.625 2.3125 C-5.64582452 0.6052556 -3.42930948 0.01720389 0 0 Z " fill="#FAFEFE" transform="translate(504.625,74.6875)"/>
<path d="M0 0 C5.28 0 10.56 0 16 0 C15.67 20.13 15.34 40.26 15 61 C10.38 61 5.76 61 1 61 C0.67 40.87 0.34 20.74 0 0 Z " fill="#FBFEFE" transform="translate(363,76)"/>
<path d="M0 0 C0 3.96 0 7.92 0 12 C-1.05960937 12.02578125 -2.11921875 12.0515625 -3.2109375 12.078125 C-4.59900001 12.1343978 -5.98701925 12.19174533 -7.375 12.25 C-8.07367188 12.26417969 -8.77234375 12.27835938 -9.4921875 12.29296875 C-11.77717646 12.36035782 -11.77717646 12.36035782 -15 13 C-17.49027427 16.35166422 -17.31094901 19.89732791 -17.4140625 23.953125 C-17.43342865 24.61334656 -17.4527948 25.27356812 -17.4727478 25.95379639 C-17.53229349 28.05240153 -17.57882722 30.15106228 -17.625 32.25 C-17.66320294 33.6771066 -17.70225602 35.10419072 -17.7421875 36.53125 C-17.83956786 40.02071305 -17.91932976 43.50995085 -18 47 C-22.95 47 -27.9 47 -33 47 C-33.02306693 42.8556418 -33.04294676 38.71151012 -33.05493164 34.56713867 C-33.0599327 33.15990439 -33.0667357 31.75267523 -33.07543945 30.34545898 C-33.08769159 28.31232431 -33.0932707 26.27925886 -33.09765625 24.24609375 C-33.10289307 23.02591553 -33.10812988 21.8057373 -33.11352539 20.54858398 C-32.89261485 13.64334812 -32.33351589 9.45368863 -27.6015625 4.44140625 C-20.65631177 -1.80931941 -8.65482253 -0.11873994 0 0 Z " fill="#FAFEFE" transform="translate(491,90)"/>
<path d="M0 0 C0.98484375 -0.00128906 1.9696875 -0.00257812 2.984375 -0.00390625 C4.02078125 -0.00003906 5.0571875 0.00382812 6.125 0.0078125 C7.67960938 0.00201172 7.67960938 0.00201172 9.265625 -0.00390625 C10.25046875 -0.00261719 11.2353125 -0.00132813 12.25 0 C13.16007813 0.00112793 14.07015625 0.00225586 15.0078125 0.00341797 C17.125 0.1328125 17.125 0.1328125 18.125 1.1328125 C18.21200342 2.76754132 18.23201063 4.40595305 18.22265625 6.04296875 C18.22015869 6.9337915 18.21766113 7.82461426 18.21508789 8.74243164 C18.20598389 9.88188232 18.19687988 11.02133301 18.1875 12.1953125 C18.166875 15.8046875 18.14625 19.4140625 18.125 23.1328125 C10.535 23.1328125 2.945 23.1328125 -4.875 23.1328125 C-6.01341808 10.61021363 -6.01341808 10.61021363 -6 6.0078125 C-6.00257813 5.09773438 -6.00515625 4.18765625 -6.0078125 3.25 C-5.75430607 -0.7911908 -3.51927216 0.0043617 0 0 Z " fill="#FCFEFE" transform="translate(553.875,43.8671875)"/>
<path d="M0 0 C0.87454834 0.00523682 1.74909668 0.01047363 2.65014648 0.01586914 C3.59438477 0.0190918 4.53862305 0.02231445 5.51147461 0.02563477 C6.50469727 0.03401367 7.49791992 0.04239258 8.52124023 0.05102539 C9.51833008 0.05553711 10.51541992 0.06004883 11.54272461 0.06469727 C14.01478872 0.07652532 16.48673541 0.0930069 18.95874023 0.11352539 C19.76280143 2.94530597 20.08698927 5.46599122 20.09155273 8.40649414 C20.09348633 9.59855469 20.09348633 9.59855469 20.09545898 10.81469727 C20.0915918 11.63518555 20.08772461 12.45567383 20.08374023 13.30102539 C20.08954102 14.54916016 20.08954102 14.54916016 20.09545898 15.82250977 C20.08541115 21.98685447 20.08541115 21.98685447 18.95874023 23.11352539 C17.32401142 23.20052881 15.68559968 23.22053602 14.04858398 23.21118164 C13.05922852 23.20795898 12.06987305 23.20473633 11.05053711 23.20141602 C10.00961914 23.19303711 8.96870117 23.1846582 7.89624023 23.17602539 C6.85145508 23.17151367 5.80666992 23.16700195 4.73022461 23.16235352 C2.13967364 23.15052452 -0.45076535 23.13404228 -3.04125977 23.11352539 C-3.07013488 19.46770852 -3.08801562 15.82192076 -3.10375977 12.17602539 C-3.11213867 11.13510742 -3.12051758 10.09418945 -3.12915039 9.02172852 C-3.13398437 7.53769531 -3.13398437 7.53769531 -3.13891602 6.02368164 C-3.14415283 5.10723877 -3.14938965 4.1907959 -3.15478516 3.24658203 C-3.00429848 0.41905065 -2.82708258 0.15722921 0 0 Z " fill="#FDFEFE" transform="translate(578.041259765625,43.886474609375)"/>
<path d="M0 0 C0 6.93 0 13.86 0 21 C-7.59 21 -15.18 21 -23 21 C-24.20217503 18.59564994 -24.03897118 17.31618631 -23.87890625 14.6484375 C-23.83056641 13.79765625 -23.78222656 12.946875 -23.73242188 12.0703125 C-23.67634766 11.18085937 -23.62027344 10.29140625 -23.5625 9.375 C-23.51029297 8.4778125 -23.45808594 7.580625 -23.40429688 6.65625 C-23.2744565 4.43715988 -23.13948661 2.21850129 -23 0 C-19.54210946 -0.19635974 -16.08367803 -0.38058252 -12.625 -0.5625 C-11.64015625 -0.61857422 -10.6553125 -0.67464844 -9.640625 -0.73242188 C-8.69960938 -0.78076172 -7.75859375 -0.82910156 -6.7890625 -0.87890625 C-5.48509521 -0.94960327 -5.48509521 -0.94960327 -4.15478516 -1.02172852 C-2 -1 -2 -1 0 0 Z " fill="#FBFEFE" transform="translate(598,70)"/>
<path d="M0 0 C0 0.99 0 1.98 0 3 C-0.99 3 -1.98 3 -3 3 C-2.67 3.99 -2.34 4.98 -2 6 C-1.01 6.33 -0.02 6.66 1 7 C1.144375 6.030625 1.28875 5.06125 1.4375 4.0625 C2 1 2 1 3 0 C4.99958364 -0.04080783 7.00045254 -0.04254356 9 0 C9 0.99 9 1.98 9 3 C7.68 3 6.36 3 5 3 C5 4.32 5 5.64 5 7 C5.99 7 6.98 7 8 7 C8 7.99 8 8.98 8 10 C7.01 10 6.02 10 5 10 C5.495 11.485 5.495 11.485 6 13 C5.72230092 15.3406065 5.39460023 17.67624308 5 20 C3.68 20 2.36 20 1 20 C-0.125 12.25 -0.125 12.25 1 10 C-0.65 10 -2.3 10 -4 10 C-3.67 10.99 -3.34 11.98 -3 13 C-3.27769908 15.3406065 -3.60539977 17.67624308 -4 20 C-4.99 20 -5.98 20 -7 20 C-7.07347656 19.04287109 -7.07347656 19.04287109 -7.1484375 18.06640625 C-7.22320312 17.24011719 -7.29796875 16.41382813 -7.375 15.5625 C-7.44460938 14.73878906 -7.51421875 13.91507813 -7.5859375 13.06640625 C-7.72257812 12.38449219 -7.85921875 11.70257813 -8 11 C-8.66 10.67 -9.32 10.34 -10 10 C-10.0825 10.9075 -10.165 11.815 -10.25 12.75 C-11.1380859 16.59837224 -11.73213959 17.79419422 -15 20 C-19.84174448 21.4267498 -22.96831438 21.53426577 -27.5 19.1875 C-30.82941118 16.27426521 -30.94495511 15.67154761 -31.3125 11.1875 C-31.28232024 7.86772673 -31.0060988 7.00955479 -29.125 4.0625 C-25.88597759 0.91874296 -23.62015774 0.67452468 -19.109375 0.69921875 C-15.66298838 1.19064795 -13.68759019 2.84992785 -11 5 C-10.113125 4.175 -9.22625 3.35 -8.3125 2.5 C-5.49455481 0.12382294 -3.76196377 -0.55322997 0 0 Z M-27 7 C-27.74270534 9.80707529 -27.72284344 12.19023758 -27 15 C-25 17.33333333 -25 17.33333333 -22 18 C-18.78683477 17.51237739 -18.78683477 17.51237739 -16 16 C-13.69739241 13.18401813 -13.69739241 13.18401813 -14.125 10 C-14.7554589 6.94402071 -14.7554589 6.94402071 -16.875 5.125 C-20.93991115 2.97298822 -23.68938426 4.13676477 -27 7 Z " fill="#F4FEFE" transform="translate(415,155)"/>
<path d="M0 0 C3.83755622 0.06211872 6.31708232 0.59204335 9.25 3.25 C9.5625 5.75 9.5625 5.75 9.25 8.25 C9.11742176 11.20003206 9.11742176 11.20003206 9.9375 13.75 C10.25 16.25 10.25 16.25 9.15625 17.89453125 C6.42798938 19.83450346 4.36814019 19.54413355 1.0625 19.4375 C-0.02417969 19.41042969 -1.11085938 19.38335937 -2.23046875 19.35546875 C-3.47763672 19.30326172 -3.47763672 19.30326172 -4.75 19.25 C-4.77683987 16.27077407 -4.79676037 13.29178705 -4.8125 10.3125 C-4.82087891 9.46236328 -4.82925781 8.61222656 -4.83789062 7.73632812 C-4.84111328 6.92744141 -4.84433594 6.11855469 -4.84765625 5.28515625 C-4.85289307 4.5362915 -4.85812988 3.78742676 -4.86352539 3.01586914 C-4.64454929 -0.39026872 -3.5324331 0.23549554 0 0 Z M-0.75 3.25 C-0.75 4.9 -0.75 6.55 -0.75 8.25 C0.9 8.25 2.55 8.25 4.25 8.25 C4.58 6.93 4.91 5.61 5.25 4.25 C2.28 3.755 2.28 3.755 -0.75 3.25 Z M-0.75 11.25 C-0.75 12.9 -0.75 14.55 -0.75 16.25 C1.23 16.25 3.21 16.25 5.25 16.25 C5.84070014 14.30396726 5.84070014 14.30396726 6.25 12.25 C5.12465895 10.89381501 5.12465895 10.89381501 2.1875 11.1875 C1.218125 11.208125 0.24875 11.22875 -0.75 11.25 Z " fill="#F3FEFD" transform="translate(480.75,155.75)"/>
<path d="M0 0 C1.92382741 1.92382741 1.21841339 5.25661659 1.25 7.8125 C1.28867187 9.67841797 1.28867187 9.67841797 1.328125 11.58203125 C0.98280677 15.17909616 0.71132286 16.63567941 -2 19 C-4.41015625 19.42578125 -4.41015625 19.42578125 -7.0625 19.3125 C-7.94035156 19.28800781 -8.81820312 19.26351562 -9.72265625 19.23828125 C-12 19 -12 19 -14 18 C-13.505 16.515 -13.505 16.515 -13 15 C-10.03 15.495 -10.03 15.495 -7 16 C-7 15.34 -7 14.68 -7 14 C-8.175625 13.566875 -8.175625 13.566875 -9.375 13.125 C-12 12 -12 12 -14 10 C-14.44935048 6.55497967 -14.37778761 4.65254224 -12.625 1.625 C-8.63612443 -0.84430392 -4.58285811 -0.50920646 0 0 Z M-9 3 C-10.21081851 6.10540926 -10.21081851 6.10540926 -10 10 C-8.02 10 -6.04 10 -4 10 C-3.32041397 7.60280568 -3.32041397 7.60280568 -3 5 C-3.66 4.34 -4.32 3.68 -5 3 C-6.32 3 -7.64 3 -9 3 Z M-6 13 C-5.01 14.485 -5.01 14.485 -4 16 C-4 15.01 -4 14.02 -4 13 C-4.66 13 -5.32 13 -6 13 Z " fill="#F6FEFD" transform="translate(573,162)"/>
<path d="M0 0 C0.93714844 0.17402344 1.87429688 0.34804687 2.83984375 0.52734375 C6.01051466 1.00157265 7.92089148 0.7105635 11 0 C15.42151042 -0.42109623 15.42151042 -0.42109623 17.63671875 1.19140625 C19.47047731 3.62415758 19.30476235 5.17776642 19.1875 8.1875 C19.16042969 9.08855469 19.13335938 9.98960937 19.10546875 10.91796875 C19.07066406 11.60503906 19.03585937 12.29210937 19 13 C17.68 13 16.36 13 15 13 C14.67 10.03 14.34 7.06 14 4 C13.01 4 12.02 4 11 4 C10.95101562 4.63808594 10.90203125 5.27617187 10.8515625 5.93359375 C10.77679687 6.75988281 10.70203125 7.58617187 10.625 8.4375 C10.55539062 9.26121094 10.48578125 10.08492187 10.4140625 10.93359375 C10.27742187 11.61550781 10.14078125 12.29742187 10 13 C9.01 13.495 9.01 13.495 8 14 C7.34 13.67 6.68 13.34 6 13 C5.375 10.9375 5.375 10.9375 5 9 C4.896875 9.639375 4.79375 10.27875 4.6875 10.9375 C4.460625 11.618125 4.23375 12.29875 4 13 C3.01 13.33 2.02 13.66 1 14 C0 13 0 13 -0.09765625 10.05859375 C-0.08605469 8.86363281 -0.07445312 7.66867188 -0.0625 6.4375 C-0.05347656 5.23996094 -0.04445313 4.04242188 -0.03515625 2.80859375 C-0.02355469 1.88175781 -0.01195312 0.95492187 0 0 Z " fill="#F3FEFD" transform="translate(538,162)"/>
<path d="M0 0 C0.99 0 1.98 0 3 0 C3 6.93 3 13.86 3 21 C-7 21 -7 21 -11 18 C-12.24830727 14.83762158 -12.16531803 13.45462458 -11 10.25 C-9 8 -9 8 -5.375 7.1875 C-2 7 -2 7 -1 7 C-1.020625 6.030625 -1.04125 5.06125 -1.0625 4.0625 C-1 1 -1 1 0 0 Z M-6 10 C-7.35618499 11.12534105 -7.35618499 11.12534105 -7.0625 14.0625 C-7.041875 15.031875 -7.02125 16.00125 -7 17 C-3.95086772 18.01111093 -3.95086772 18.01111093 -1 17 C-1 15.02 -1 13.04 -1 11 C-2.65614657 10.61781233 -4.32457024 10.28604898 -6 10 Z " fill="#F1FEFD" transform="translate(532,155)"/>
<path d="M0 0 C0.99 0.33 1.98 0.66 3 1 C3 2.32 3 3.64 3 5 C3.99 5.33 4.98 5.66 6 6 C6 5.01 6 4.02 6 3 C7.32 3 8.64 3 10 3 C10 3.66 10 4.32 10 5 C10.99 5.33 11.98 5.66 13 6 C13 6.99 13 7.98 13 9 C12.01 9 11.02 9 10 9 C10 11.64 10 14.28 10 17 C10.99 16.67 11.98 16.34 13 16 C12.67 17.32 12.34 18.64 12 20 C7.125 19.125 7.125 19.125 6 18 C5.92820036 16.48071962 5.91607993 14.95832518 5.9375 13.4375 C5.94652344 12.61121094 5.95554687 11.78492188 5.96484375 10.93359375 C5.97644531 10.29550781 5.98804688 9.65742188 6 9 C5.01 9 4.02 9 3 9 C2.67 12.63 2.34 16.26 2 20 C1.01 20 0.02 20 -1 20 C-0.98839844 18.96359375 -0.97679687 17.9271875 -0.96484375 16.859375 C-0.95546163 15.48958514 -0.94636188 14.11979332 -0.9375 12.75 C-0.92912109 12.06808594 -0.92074219 11.38617188 -0.91210938 10.68359375 C-0.89571608 7.30657446 -0.94371232 4.22708361 -2 1 C-1.34 0.67 -0.68 0.34 0 0 Z " fill="#F2FEFE" transform="translate(438,156)"/>
<path d="M0 0 C2 2 2 2 2.125 4.625 C2.08375 5.40875 2.0425 6.1925 2 7 C-0.64 7.33 -3.28 7.66 -6 8 C-6 8.66 -6 9.32 -6 10 C-4.02 9.34 -2.04 8.68 0 8 C0.66 8.66 1.32 9.32 2 10 C0.4375 11.5625 0.4375 11.5625 -2 13 C-5.77579201 12.93375803 -8.07482922 12.78061285 -11 10.3125 C-12.38906225 7.10029355 -12.05521374 5.3063364 -11 2 C-7.73370622 -1.8944272 -4.65292258 -1.12014803 0 0 Z M-6 2 C-5.67 2.66 -5.34 3.32 -5 4 C-4.01 4 -3.02 4 -2 4 C-2 3.34 -2 2.68 -2 2 C-3.32 2 -4.64 2 -6 2 Z " fill="#F4FEFD" transform="translate(464,163)"/>
<path d="M0 0 C0.87454834 0.00523682 1.74909668 0.01047363 2.65014648 0.01586914 C3.59438477 0.0190918 4.53862305 0.02231445 5.51147461 0.02563477 C6.50469727 0.03401367 7.49791992 0.04239258 8.52124023 0.05102539 C9.51833008 0.05553711 10.51541992 0.06004883 11.54272461 0.06469727 C14.01478872 0.07652532 16.48673541 0.0930069 18.95874023 0.11352539 C20.15673473 4.26011912 19.84835943 8.10721586 19.52124023 12.36352539 C19.4690332 13.10860352 19.41682617 13.85368164 19.36303711 14.62133789 C19.23391854 16.452474 19.0970891 18.28306352 18.95874023 20.11352539 C18.62874023 20.11352539 18.29874023 20.11352539 17.95874023 20.11352539 C17.95874023 14.50352539 17.95874023 8.89352539 17.95874023 3.11352539 C14.97920665 3.25370365 12.0002472 3.40038881 9.02124023 3.55102539 C7.74603516 3.61 7.74603516 3.61 6.44506836 3.67016602 C5.63618164 3.71206055 4.82729492 3.75395508 3.99389648 3.79711914 C3.24503174 3.83377686 2.49616699 3.87043457 1.72460938 3.90820312 C-0.06587303 3.93123602 -0.06587303 3.93123602 -1.04125977 5.11352539 C-1.11451412 7.81221589 -1.13348328 10.47855095 -1.10375977 13.17602539 C-1.08313477 15.79540039 -1.06250977 18.41477539 -1.04125977 21.11352539 C5.55874023 21.11352539 12.15874023 21.11352539 18.95874023 21.11352539 C18.95874023 21.77352539 18.95874023 22.43352539 18.95874023 23.11352539 C11.69874023 23.11352539 4.43874023 23.11352539 -3.04125977 23.11352539 C-3.06188477 19.50415039 -3.08250977 15.89477539 -3.10375977 12.17602539 C-3.11286377 11.03657471 -3.12196777 9.89712402 -3.13134766 8.72314453 C-3.13384521 7.83232178 -3.13634277 6.94149902 -3.13891602 6.02368164 C-3.14415283 5.10723877 -3.14938965 4.1907959 -3.15478516 3.24658203 C-3.00429848 0.41905065 -2.82708258 0.15722921 0 0 Z " fill="#F2FEFD" transform="translate(578.041259765625,43.886474609375)"/>
<path d="M0 0 C1.32 0.33 2.64 0.66 4 1 C4.33 3.97 4.66 6.94 5 10 C5.99 9.67 6.98 9.34 8 9 C8.33 6.03 8.66 3.06 9 0 C10.32 0.33 11.64 0.66 13 1 C13 4.96 13 8.92 13 13 C9.34869809 13.91282548 6.71841631 14.31646096 3 14 C1.328125 12.83984375 1.328125 12.83984375 0 11 C-0.29296875 8.30078125 -0.29296875 8.30078125 -0.1875 5.3125 C-0.16042969 4.31863281 -0.13335937 3.32476562 -0.10546875 2.30078125 C-0.07066406 1.54152344 -0.03585937 0.78226563 0 0 Z " fill="#F5FEFD" transform="translate(493,162)"/>
<path d="M0 0 C-0.33 0.99 -0.66 1.98 -1 3 C-2.65 2.67 -4.3 2.34 -6 2 C-6 2.66 -6 3.32 -6 4 C-5.21625 4.12375 -4.4325 4.2475 -3.625 4.375 C-1 5 -1 5 1 7 C0.8125 9 0.8125 9 0 11 C-3 13 -3 13 -6.1875 12.625 C-7.5796875 12.315625 -7.5796875 12.315625 -9 12 C-9 10.68 -9 9.36 -9 8 C-8.01 8 -7.02 8 -6 8 C-7.32 7.01 -8.64 6.02 -10 5 C-9.625 2.5625 -9.625 2.5625 -9 0 C-5.93109813 -1.53445094 -3.29905734 -0.54984289 0 0 Z " fill="#F2FEFE" transform="translate(434,163)"/>
<path d="M0 0 C1.32 0.33 2.64 0.66 4 1 C4 7.27 4 13.54 4 20 C2.68 20 1.36 20 0 20 C0 13.4 0 6.8 0 0 Z " fill="#F0FEFD" transform="translate(515,155)"/>
<path d="M0 0 C1.65 0.33 3.3 0.66 5 1 C4.34 4.96 3.68 8.92 3 13 C1.68 13 0.36 13 -1 13 C-2.0070238 7.96488101 -1.97387813 4.76052962 0 0 Z " fill="#F4FEFD" transform="translate(509,162)"/>
<path d="M0 0 C0 7.26 0 14.52 0 22 C-0.66 22 -1.32 22 -2 22 C-1.67 15.4 -1.34 8.8 -1 2 C-6.28 2 -11.56 2 -17 2 C-16.67 1.34 -16.34 0.68 -16 0 C-13.671875 -0.44921875 -13.671875 -0.44921875 -10.75 -0.6875 C-9.31914063 -0.81705078 -9.31914063 -0.81705078 -7.859375 -0.94921875 C-5 -1 -5 -1 0 0 Z " fill="#EEFBFB" transform="translate(572,45)"/>
<path d="M0 0 C1.98 0.495 1.98 0.495 4 1 C3.67 7.27 3.34 13.54 3 20 C2.67 20 2.34 20 2 20 C2 14.39 2 8.78 2 3 C1.01 2.67 0.02 2.34 -1 2 C-0.67 1.34 -0.34 0.68 0 0 Z " fill="#EAFDFB" transform="translate(594,44)"/>
<path d="M0 0 C1.32 0 2.64 0 4 0 C4.33 0.99 4.66 1.98 5 3 C3.68 3 2.36 3 1 3 C1.20625 4.11375 1.4125 5.2275 1.625 6.375 C1.74875 7.57125 1.8725 8.7675 2 10 C1.34 10.66 0.68 11.32 0 12 C-0.19401633 10.18818595 -0.38004375 8.37551468 -0.5625 6.5625 C-0.66691406 5.55316406 -0.77132812 4.54382812 -0.87890625 3.50390625 C-0.91886719 2.67761719 -0.95882812 1.85132813 -1 1 C-0.67 0.67 -0.34 0.34 0 0 Z " fill="#F0FBFA" transform="translate(549,44)"/>
<path d="M0 0 C0.99 0 1.98 0 3 0 C3 0.66 3 1.32 3 2 C7.29 2 11.58 2 16 2 C16 2.33 16 2.66 16 3 C13.9174133 3.19561869 11.83388144 3.38119313 9.75 3.5625 C8.00976562 3.71912109 8.00976562 3.71912109 6.234375 3.87890625 C3.48128523 3.98198087 1.580018 3.86213473 -1 3 C-0.67 2.01 -0.34 1.02 0 0 Z " fill="#EDF5F4" transform="translate(576,44)"/>
<path d="M0 0 C1.32 0 2.64 0 4 0 C4 1.98 4 3.96 4 6 C1.525 5.01 1.525 5.01 -1 4 C-0.67 2.68 -0.34 1.36 0 0 Z " fill="#F0FFFE" transform="translate(509,156)"/>
<path d="M0 0 C1.32 0.66 2.64 1.32 4 2 C3.01 3.485 3.01 3.485 2 5 C0.68 4.67 -0.64 4.34 -2 4 C-1.34 2.68 -0.68 1.36 0 0 Z " fill="#F1FEFE" transform="translate(539,156)"/>
<path d="M0 0 C3.3 0 6.6 0 10 0 C10.33 0.99 10.66 1.98 11 3 C10.34 3.66 9.68 4.32 9 5 C8.34 4.01 7.68 3.02 7 2 C3.43230448 1.26393501 3.43230448 1.26393501 0 1 C0 0.67 0 0.34 0 0 Z " fill="#EDFEFD" transform="translate(346,90)"/>
<path d="M0 0 C2 1 2 1 2 1 Z " fill="#FFFFFF" transform="translate(592,68)"/>
<path d="" fill="#FFFFFF" transform="translate(0,0)"/>
<path d="" fill="#AAFFFF" transform="translate(0,0)"/>
<path d="" fill="#FFFFFF" transform="translate(0,0)"/>
<path d="" fill="#FFFFFF" transform="translate(0,0)"/>
</svg>
